# xmcd CD database file
#
# Track frame offsets:
#	150
#	11450
#	36465
#	47014
#	59452
#	82392
#	97252
#	116742
#	131120
#	145750
#	157755
#	165012
#	188465
#	201740
#	213862
#	219542
#	268212
#	289032
#
# Disc length: 4107 seconds
#
# Revision: 2
# Processed by: cddbd v1.5.1PL0 Copyright (c) Steve Scherf et al.
# Submitted via: CDex 1.51
#
DISCID=10100912
DTITLE=Kathleen Battle - Classic Kathleen Battle a Portrait
DYEAR=2002
DGENRE=Classical
TTITLE0=Puccini:  O Mio Babbino Caro
TTITLE1=Handel: Let the bright seraphim
TTITLE2=Traditional Chilean:  Dormi Jesu
TTITLE3=Traditional: Cancion De Cuna
TTITLE4=Vangelis: Mythodea Movement IX
TTITLE5=Mozart: Laudate Dominium
TTITLE6=Handel: Rejoice Greatly
TTITLE7=Traditional: Fix me Jesus
TTITLE8=Faure: Pie Jesu
TTITLE9=Traditional Catalan:  El noi de la mare
TTITLE10=Traditional Catalan: El desmbre congelat
TTITLE11=Ellington: Prelude to a Kiss
TTITLE12=Handel Eternal Source of Light Divine
TTITLE13=Mozart: Alleluja
TTITLE14=Traditional: Angels watching over me
TTITLE15=Mahler: Sehr Behaglich
TTITLE16=J.S. Bach: Jauzet Gott in allen laden
TTITLE17=Dvorak: Going Home
EXTD=YEAR: 2002
EXTT0=
EXTT1=
EXTT2=
EXTT3=
EXTT4=
EXTT5=
EXTT6=
EXTT7=
EXTT8=
EXTT9=
EXTT10=
EXTT11=
EXTT12=
EXTT13=
EXTT14=
EXTT15=
EXTT16=
EXTT17=
PLAYORDER=
